<svg xmlns="http://www.w3.org/2000/svg" viewBox="0 0 256 256" role="img" aria-labelledby="title">
  <title>GenAi Healthcare Assistant</title>
  <defs>
    <linearGradient id="g" x1="0" x2="1" y1="0" y2="1">
      <stop offset="0%" stop-color="#1d6d70" />
      <stop offset="100%" stop-color="#b5694a" />
    </linearGradient>
  </defs>
  <rect width="256" height="256" rx="56" fill="#171514" />
  <rect x="28" y="28" width="200" height="200" rx="44" fill="url(#g)" />
  <path d="M128 72c-11 0-20 9-20 20v16h-16c-11 0-20 9-20 20s9 20 20 20h16v16c0 11 9 20 20 20s20-9 20-20v-16h16c11 0 20-9 20-20s-9-20-20-20h-16V92c0-11-9-20-20-20z" fill="#fff4ea" />
</svg>
